<?xml version="1.0" encoding="utf-8"?>
<!-- Generator: Adobe Illustrator 16.0.4, SVG Export Plug-In . SVG Version: 6.00 Build 0)  -->
<!DOCTYPE svg PUBLIC "-//W3C//DTD SVG 1.1//EN" "http://www.w3.org/Graphics/SVG/1.1/DTD/svg11.dtd">
<svg version="1.1" xmlns="http://www.w3.org/2000/svg" xmlns:xlink="http://www.w3.org/1999/xlink" x="0px" y="0px" width="180px"
	 height="180px" viewBox="0 0 180 180" enable-background="new 0 0 180 180" xml:space="preserve">
<g id="Scholar">
</g>
<g id="Research">
</g>
<g id="Apply">
</g>
<g id="MILE">
</g>
<g id="Scholarship">
</g>
<g id="Brunch">
</g>
<g id="Welcome">
</g>
<g id="Fellowship">
</g>
<g id="Promise_Fund">
	<g>
		<circle fill="#F38B00" cx="89.43" cy="89.672" r="84.718"/>
	</g>
	<path fill="#FFFFFF" d="M102.521,52.39c-0.474-1.304-1.914-1.978-3.216-1.504c-1.304,0.473-1.978,1.913-1.504,3.216l0.539,1.487
		l-73.401,49.813l-0.051-0.14c-0.354-0.979-1.434-1.485-2.411-1.129c-0.979,0.354-1.483,1.435-1.128,2.412l7.063,19.471
		c0.355,0.979,1.435,1.483,2.412,1.128c0.979-0.355,1.483-1.436,1.129-2.412l-0.064-0.141L61,121.674c0,0.006,0,0.012,0,0.018
		c0,3.745,3.631,7.613,7.811,7.613c0.225,0,0.459-0.011,0.688-0.034l8.122-0.813c4.482-0.448,7.172-5.156,6.805-9.128l35.739-3.58
		l0.54,1.485c0.475,1.303,1.914,1.978,3.218,1.504c1.303-0.473,1.976-1.913,1.505-3.217L102.521,52.39z M77.219,124.412
		l-8.118,0.813c-1.816,0.176-3.81-1.771-4.027-3.938c-0.001-0.006-0.003-0.012-0.004-0.019l15.311-1.534
		C80.543,121.696,79.139,124.22,77.219,124.412z M157.899,68.474l-33.019,12.052c-0.978,0.357-2.059-0.146-2.414-1.123
		c-0.356-0.977,0.146-2.058,1.123-2.414l33.019-12.053c0.977-0.357,2.058,0.146,2.413,1.124S158.876,68.118,157.899,68.474z
		 M119.333,66.701l21.041-12.329c0.896-0.525,2.052-0.225,2.575,0.673c0.527,0.896,0.226,2.051-0.672,2.576L121.235,69.95
		c-0.099,0.059-0.203,0.107-0.308,0.146c-0.838,0.306-1.801-0.021-2.268-0.818C118.134,68.381,118.436,67.227,119.333,66.701z
		 M112.774,58.736c-0.739-0.733-0.743-1.925-0.009-2.663l10.946-11.012c0.736-0.736,1.927-0.741,2.664-0.008
		c0.737,0.733,0.739,1.925,0.008,2.664l-10.947,11.012c-0.202,0.203-0.437,0.35-0.688,0.442
		C114.081,59.413,113.309,59.268,112.774,58.736z M153.396,83.659c0.155,0.91-0.369,1.781-1.207,2.087
		c-0.105,0.038-0.216,0.067-0.332,0.087l-24.034,4.125c-1.026,0.176-1.999-0.513-2.175-1.536c-0.176-1.026,0.515-1.998,1.536-2.175
		l24.038-4.125C152.245,81.945,153.221,82.634,153.396,83.659z M147.154,101.978c-0.066,0.752-0.566,1.361-1.23,1.604
		c-0.253,0.093-0.527,0.132-0.812,0.106l-15.467-1.371c-1.036-0.091-1.802-1.004-1.71-2.04c0.093-1.036,1.008-1.801,2.043-1.712
		l15.465,1.372C146.48,100.028,147.247,100.942,147.154,101.978z M99.834,64.667l2.131,5.506l-63.187,31.365L99.834,64.667z"/>
</g>
</svg>
